PathFileType	4	(X/Y/Z)	Kaydara	
DataRate	CameraRate	NumFrames	NumMarkers	Units	OrigDataRate	OrigDataStartFrame	OrigNumFrames	
60.00	60.00	5	74	mm	60.00	290	96	
Frame#	Time	Z_lasi			Z_rasi			Z_rpsi			Z_lpsi			Z_fneck			Z_bneck			Z_fhead			Z_rhead			Z_lhead			Z_rshld			Z_relbtop			Z_relbext			Z_relblow			Z_rwrext			Z_rwrtop			Z_rwrlow			Z_lshld			Z_lelbext			Z_lelblow			Z_lelbtop			Z_lwrext			Z_lwrtop			Z_lwrlow			Z_rtopleg			Z_ltopleg			Z_rkneefr			Z_rkneebk			Z_rkneeis			Z_lkneefr			Z_lknssbk			Z_lkneeis			Z_rankfr			Z_rankis			Z_rankbk			Z_lankfr			Z_lankbk			Z_lankis			A_lasi			A_rasi			A_rpsi			A_lpsi			A_fneck			A_bneck			A_fhead			A_rhead			A_lhead			A_rshld			A_relbtop			A_relbext			A_relblow			A_rwrext			A_rwrtop			A_rwrlow			A_lshld			A_lelbext			A_lelblow			A_lelbtop			A_lwrext			A_lwrtop			A_lwrlow			A_rtopleg			A_ltopleg			A_rkneefr			A_rkneebk			A_rkneeis			A_lkneefr			A_lknssbk			A_lkneeis			A_rankfr			A_rankis			A_rankbk			A_lankfr			A_lankbk			A_lankis			
		X1	Y1	Z1	X2	Y2	Z2	X3	Y3	Z3	X4	Y4	Z4	X5	Y5	Z5	X6	Y6	Z6	X7	Y7	Z7	X8	Y8	Z8	X9	Y9	Z9	X10	Y10	Z10	X11	Y11	Z11	X12	Y12	Z12	X13	Y13	Z13	X14	Y14	Z14	X15	Y15	Z15	X16	Y16	Z16	X17	Y17	Z17	X18	Y18	Z18	X19	Y19	Z19	X20	Y20	Z20	X21	Y21	Z21	X22	Y22	Z22	X23	Y23	Z23	X24	Y24	Z24	X25	Y25	Z25	X26	Y26	Z26	X27	Y27	Z27	X28	Y28	Z28	X29	Y29	Z29	X30	Y30	Z30	X31	Y31	Z31	X32	Y32	Z32	X33	Y33	Z33	X34	Y34	Z34	X35	Y35	Z35	X36	Y36	Z36	X37	Y37	Z37	X38	Y38	Z38	X39	Y39	Z39	X40	Y40	Z40	X41	Y41	Z41	X42	Y42	Z42	X43	Y43	Z43	X44	Y44	Z44	X45	Y45	Z45	X46	Y46	Z46	X47	Y47	Z47	X48	Y48	Z48	X49	Y49	Z49	X50	Y50	Z50	X51	Y51	Z51	X52	Y52	Z52	X53	Y53	Z53	X54	Y54	Z54	X55	Y55	Z55	X56	Y56	Z56	X57	Y57	Z57	X58	Y58	Z58	X59	Y59	Z59	X60	Y60	Z60	X61	Y61	Z61	X62	Y62	Z62	X63	Y63	Z63	X64	Y64	Z64	X65	Y65	Z65	X66	Y66	Z66	X67	Y67	Z67	X68	Y68	Z68	X69	Y69	Z69	X70	Y70	Z70	X71	Y71	Z71	X72	Y72	Z72	X73	Y73	Z73	X74	Y74	Z74	

85	4.817	-224.79471	1074.91371	741.61125	-290.65830	1086.78795	544.30042	-127.55928	1115.22072	448.23860	-42.15392	1097.39540	679.32053	-246.45512	1444.45969	645.80070	-135.51226	1507.85126	632.37701	-322.06448	1655.97183	638.42182	-163.64182	1652.91321	581.67694	-178.87861	1626.23322	726.47003	-244.87473	1445.63934	447.43946	-346.69846	1140.85220	400.29297	-324.81094	1122.31461	455.06210	-386.28292	1197.63832	439.84055	-558.94295	1057.74765	518.46821	-573.09052	1101.97006	519.34906	-554.50745	1111.11069	556.41632	-104.05323	1438.56049	805.32227	-61.94278	1123.53432	799.09134	-108.12236	1147.45583	872.47116	-40.19578	1143.83499	865.28275	-192.80216	898.17635	879.24728	-172.64265	890.24307	921.42433	-129.95694	882.73354	903.18695	-179.19516	927.34756	404.49593	-139.34703	888.43857	767.28180	-289.44294	428.04356	444.69604	-219.30317	454.43794	393.02299	-223.44006	431.67057	517.04853	-202.47524	445.53001	700.20752	-96.14542	468.42850	688.88176	-192.49987	444.46495	608.39302	-257.28542	185.01577	413.47496	-232.16053	177.27896	474.43329	-181.55478	175.04652	403.13934	-149.37807	160.14698	676.15242	-91.67072	164.63764	620.61745	-169.53241	175.36879	607.79400	-998.97110	1038.70384	446.90487	-967.43362	1042.53067	604.00398	-1120.82825	1037.17308	645.74303	-1121.86386	1043.48404	461.73382	-1042.92435	1387.37656	556.42101	-1184.28238	1398.68378	563.35163	-1005.12688	1602.77924	581.22143	-1145.79605	1545.92041	663.18878	-1147.80296	1559.82452	500.16335	-1082.67715	1355.39627	732.67593	-926.81488	1121.17630	733.36823	-968.86902	1071.20583	733.60550	-939.30862	1112.17468	678.59970	-717.66129	1046.23985	651.09116	-719.55818	1091.36673	640.87387	-739.63112	1076.16638	609.53003	-1116.40549	1360.43427	384.69246	-1145.07057	1048.08861	377.37476	-1075.15762	1060.01686	368.99380	-1118.48709	1056.75049	335.98454	-1046.33156	834.10507	348.97133	-1068.43590	833.98346	311.70374	-1025.69534	846.66405	300.32391	-1053.26439	877.53387	716.39900	-1058.82446	892.69485	376.10634	-1016.90529	453.33046	623.19611	-1121.90758	487.98943	675.02083	-1109.88083	486.40842	556.46557	-1010.03494	468.46394	491.69479	-1105.51552	480.25513	406.08219	-1113.40797	480.32387	530.84614	-1093.41408	167.18254	655.34630	-1130.33188	163.76757	591.52058	-1174.22302	157.31961	663.31406	-1069.52515	167.26398	449.03297	-1133.05870	168.54740	418.13313	-1124.23630	174.88178	506.67305 
86	4.833	-225.44594	1075.25391	742.88551	-290.67621	1087.17247	545.39959	-127.27144	1115.22278	450.06115	-42.55123	1097.23152	681.29303	-244.13601	1445.08118	647.55913	-133.07850	1508.07297	634.36317	-319.17004	1656.49933	640.22057	-160.53751	1653.92761	583.97686	-176.11397	1626.85654	728.71521	-242.28844	1446.58234	449.08134	-344.34181	1141.62521	400.03963	-322.59521	1122.67174	454.35055	-384.06975	1198.13980	439.93900	-556.58230	1056.99272	516.50681	-570.60562	1101.07620	518.38432	-551.45638	1108.96461	555.10986	-102.13852	1438.32489	807.34009	-62.79652	1122.82181	800.79765	-109.22305	1146.91162	874.15977	-41.32091	1142.83508	867.21642	-194.68325	897.60574	880.12405	-174.88129	889.53850	922.33673	-132.00494	882.08054	904.60854	-178.78328	927.50359	405.89615	-139.78588	888.28804	768.84193	-289.01697	428.17650	445.35553	-218.92063	454.59534	393.72208	-223.45205	431.63982	518.04028	-201.97523	445.44575	700.64430	-95.65942	468.51837	689.51874	-191.82137	444.56455	608.93677	-257.10114	185.18038	413.79658	-232.41522	177.68776	475.10948	-181.35025	175.12129	403.51452	-149.15377	160.12274	676.33301	-91.30801	164.67789	620.86731	-169.22895	175.44559	608.14247	-998.90488	1038.50182	446.99684	-967.46758	1042.26746	604.24496	-1120.82062	1037.26768	645.77560	-1121.80260	1043.56087	461.74049	-1042.17751	1387.56653	556.21902	-1183.57765	1398.26233	562.99103	-1006.24107	1603.97324	580.50087	-1146.42937	1545.59326	662.22115	-1148.12424	1558.87573	499.15310	-1081.80450	1355.54565	732.54379	-928.81912	1119.08760	735.51987	-971.09612	1069.63493	736.30898	-941.31706	1109.55681	680.56740	-720.74837	1044.36462	652.83943	-724.12086	1088.36075	639.11160	-744.09554	1070.10567	609.00887	-1115.42297	1360.24658	384.51427	-1144.58588	1048.07693	376.88469	-1074.57802	1059.69437	368.92479	-1117.69943	1056.67213	335.65453	-1045.80185	832.95586	348.94451	-1068.48000	833.73779	311.52229	-1025.65048	846.11198	300.49171	-1053.47435	877.49313	716.40022	-1059.01596	892.68913	376.18645	-1017.68509	453.19145	623.39443	-1122.56554	487.99782	675.16464	-1110.42542	486.32736	556.50398	-1010.63034	468.38299	491.59199	-1106.18683	480.22148	406.03714	-1114.83986	480.67806	531.31386	-1093.66409	167.16259	655.39787	-1130.57281	163.71765	591.60450	-1174.35944	157.16419	663.28316	-1069.75281	167.33017	448.99258	-1133.33366	168.48116	418.14240	-1124.47395	174.78006	506.71513 
87	4.850	-225.87526	1075.51079	744.13429	-290.66490	1087.56302	546.55491	-126.92086	1115.18814	451.72981	-42.72727	1097.00043	683.08296	-241.77362	1445.49057	649.31297	-130.77597	1508.35281	636.42601	-317.33051	1656.04996	642.26364	-158.46340	1655.07935	586.61499	-174.38721	1627.53723	731.18851	-239.57283	1447.39944	450.63313	-341.41552	1142.39090	399.06345	-319.56026	1122.95563	453.12660	-381.28273	1198.34846	439.53030	-553.44563	1056.07109	514.02683	-567.51022	1100.17418	516.20876	-548.15979	1106.52077	554.22035	-100.39790	1437.32666	809.35799	-63.74135	1121.80962	802.47658	-110.00206	1146.17500	875.67566	-42.08432	1141.61629	868.77632	-196.34289	896.97289	880.85388	-176.95595	888.93044	923.23402	-134.10794	881.34827	905.90340	-178.46413	927.53860	407.36721	-140.26656	888.14827	770.36964	-288.73831	428.25096	446.01486	-218.60931	454.71680	394.50909	-223.10408	431.60866	518.68000	-201.93090	445.40108	701.13892	-95.65696	468.32985	690.93407	-191.26602	444.63535	609.30130	-256.96362	185.33396	414.12781	-232.06575	177.61921	475.11337	-181.13146	175.23642	403.81489	-149.08020	160.09926	676.49315	-91.07533	164.66452	621.19076	-169.03351	175.51418	608.43391	-998.86925	1038.30116	447.10194	-967.36038	1041.99181	604.31164	-1120.83061	1037.29492	645.80818	-1121.84387	1043.65166	461.78165	-1041.65047	1387.62863	556.19274	-1182.95464	1397.91290	562.71751	-1007.20757	1604.91104	579.57542	-1147.12860	1545.48538	661.22551	-1148.36151	1557.87460	498.02383	-1080.96924	1355.52841	732.64221	-931.51833	1116.92390	738.00797	-974.54735	1067.86263	739.81194	-944.39743	1106.58302	683.23334	-724.50684	1041.56532	654.66469	-730.28893	1083.77243	636.82732	-749.67476	1062.07718	608.43391	-1114.49760	1360.05814	384.34044	-1143.93135	1047.95563	376.61236	-1073.89435	1059.35577	368.96244	-1116.79909	1056.46515	335.50392	-1046.16524	832.55379	349.08436	-1068.47847	833.37868	311.38742	-1025.48676	845.48897	300.83715	-1053.68202	877.45590	716.38573	-1059.10378	892.65213	376.21769	-1018.43575	453.15323	623.62362	-1123.20259	488.00056	675.29587	-1111.09657	486.31916	556.65485	-1011.30348	468.25500	491.69456	-1106.79939	480.19333	405.98476	-1115.28030	480.52376	531.19431	-1094.06693	167.18157	655.62813	-1130.81955	163.68856	591.71173	-1174.58694	157.03745	663.32275	-1069.97887	167.40330	448.98056	-1133.55370	168.39830	418.15521	-1124.70360	174.73387	506.76960 
88	4.867	-226.22440	1075.68100	745.36575	-290.79632	1088.08678	547.95555	-126.51880	1115.09361	453.30425	-42.69070	1096.68785	684.71840	-239.66076	1445.53757	651.14120	-128.12169	1508.67203	638.59051	-316.42050	1654.83246	644.22401	-157.19103	1656.20392	589.53053	-173.56451	1627.77863	733.86749	-236.80119	1448.13553	452.14897	-337.79278	1142.80785	397.62367	-316.14849	1122.75940	451.76617	-377.89406	1198.19923	438.74416	-549.67865	1054.83536	511.21052	-563.38665	1098.88779	515.32829	-543.90583	1103.96179	552.69573	-98.63619	1436.42761	811.28464	-64.34762	1120.76149	803.79448	-110.40561	1145.31967	877.05246	-42.64229	1140.28870	870.26703	-197.89600	896.26175	881.60019	-178.72974	888.17696	924.07333	-135.77293	880.53162	906.94603	-178.13963	927.58781	408.63365	-140.54257	887.95891	771.75247	-288.70001	428.31276	446.62388	-218.55923	454.88598	395.17124	-222.89408	431.51848	519.18678	-202.16631	445.36751	701.74759	-95.92329	468.23624	691.61751	-191.28839	444.64298	609.96918	-256.81143	185.48044	414.35608	-231.98481	177.65125	475.36369	-180.95331	175.34420	404.06048	-149.22297	160.02533	676.64063	-91.05123	164.64901	621.53278	-169.03919	175.58277	608.67889	-998.77373	1038.10226	447.19025	-967.59705	1041.63673	604.70470	-1120.83969	1037.27089	645.87753	-1121.73058	1043.60817	461.81194	-1041.20750	1387.70340	556.27167	-1182.50977	1397.59064	562.57977	-1008.15346	1605.81757	578.39008	-1147.44186	1545.47455	660.15305	-1148.59756	1556.67786	496.79028	-1080.79834	1355.53253	732.97554	-935.20721	1114.27162	740.91667	-978.94569	1066.02928	743.64418	-948.27171	1103.29369	686.12686	-729.76288	1037.70119	657.25578	-737.38022	1076.95313	635.00202	-756.45340	1051.94725	609.08211	-1113.74611	1359.77921	384.23019	-1143.19237	1047.77847	376.35525	-1073.00369	1059.01810	369.11705	-1115.82642	1056.16722	335.43159	-1046.61156	832.11433	349.37328	-1068.38295	832.85164	311.33581	-1025.09537	844.84612	301.41394	-1053.88222	877.40669	716.40938	-1059.09218	892.57156	376.26106	-1019.00558	453.01933	623.79097	-1123.83362	487.94804	675.39757	-1111.66725	486.31882	556.83876	-1011.71432	468.20930	491.77052	-1107.18613	480.16930	405.93052	-1116.02402	480.65712	531.34724	-1094.35654	167.18990	655.77698	-1131.03195	163.62436	591.83052	-1174.98306	156.94783	663.46634	-1070.11292	167.42136	449.03191	-1133.66714	168.31966	418.18775	-1124.89784	174.71729	506.84242 
89	4.883	-226.41155	1075.73456	746.52794	-290.68731	1088.31223	549.11526	-126.05125	1114.90189	454.78764	-42.61968	1096.26083	686.30753	-237.92831	1445.12207	652.89909	-125.91214	1508.93723	640.99258	-315.95835	1653.21106	646.32484	-156.36076	1657.07626	592.62291	-173.20015	1627.61505	736.75438	-234.14192	1448.74283	453.60054	-333.43136	1142.88361	395.66513	-311.71484	1122.33757	449.35638	-373.85498	1197.63618	437.41631	-545.13859	1053.06549	508.22948	-558.74126	1097.16873	512.67925	-538.88504	1101.29753	550.48725	-96.52083	1435.81635	813.16132	-64.64607	1119.56718	805.03098	-110.91353	1144.40727	878.42072	-42.88805	1138.88512	871.48300	-199.55957	895.60326	882.32742	-180.52290	887.33856	924.92020	-137.44311	879.57047	907.80533	-177.88630	927.59789	409.85928	-140.85082	887.69333	773.09219	-289.00766	428.37234	447.05696	-218.67840	455.05642	395.81776	-223.41269	431.58325	519.90700	-202.62995	445.17929	702.49931	-96.46187	468.08414	692.39357	-191.80901	444.56074	610.68169	-256.73336	185.61407	414.54865	-231.77193	177.53696	475.45204	-180.82321	175.48613	404.45282	-149.54478	159.88529	676.91513	-91.23365	164.63728	621.86733	-169.16382	175.52860	608.76541	-998.61496	1037.93884	447.32494	-967.04239	1041.54655	604.30431	-1120.77667	1037.14409	645.90652	-1121.44920	1043.46359	461.91608	-1040.94978	1387.69974	556.41399	-1182.19238	1397.25983	562.51118	-1008.98491	1606.78467	577.01633	-1147.97913	1545.60791	658.97148	-1148.77800	1555.31631	495.54474	-1080.86098	1355.31738	733.41522	-939.54498	1111.39175	743.72467	-984.19960	1064.03076	747.56020	-953.12424	1099.65485	689.30672	-735.83244	1032.26479	659.71893	-745.51338	1068.51761	633.60584	-764.24286	1040.96306	610.32497	-1113.13705	1359.39362	384.20246	-1142.43378	1047.57088	376.36810	-1072.11006	1058.56186	369.47723	-1114.68170	1055.81451	335.61306	-1047.26524	831.92619	350.30155	-1068.15605	832.34779	311.70351	-1024.79149	844.05113	302.06350	-1054.05182	877.34879	716.42746	-1059.03740	892.44110	376.28399	-1019.51210	452.89574	623.91964	-1124.29558	487.89955	675.52017	-1112.11662	486.27266	556.93134	-1012.07649	468.06915	491.82499	-1107.36107	480.10689	405.86735	-1115.70198	480.27473	530.82462	-1094.64531	167.14426	655.96138	-1131.21986	163.54092	591.89144	-1175.14183	156.77622	663.50311	-1070.18188	167.42144	449.13048	-1133.73230	168.24635	418.25386	-1125.02449	174.67237	506.90105 
